<svg width="75" height="68" viewBox="0 0 75 68" fill="none" xmlns="http://www.w3.org/2000/svg">
<path d="M68.8666 6.39231C64.9873 2.32388 59.5514 0.00900722 53.8562 0C48.1565 0.00686181 42.7149 2.32051 38.8297 6.38971L37.5055 7.75494L36.1814 6.38971C28.4719 -1.70623 15.4957 -2.17117 7.19823 5.35103C6.83056 5.68449 6.47546 6.03081 6.1337 6.38971C-2.04457 14.9967 -2.04457 28.2984 6.1337 36.9054L35.5596 67.1832C36.5776 68.2318 38.2741 68.2767 39.3489 67.2834C39.3841 67.2509 39.4183 67.2175 39.4516 67.1832L68.8668 36.9054C77.0444 28.2994 77.0444 14.9984 68.8666 6.39231Z" fill="white"/>
</svg>
